# Blender v3.1.2 OBJ File: ''
# www.blender.org
mtllib трамплин.mtl
o Cube
v 1.000000 1.000000 -1.000000
v 1.000000 -1.000000 -1.000000
v 1.000000 -1.000000 1.000000
v -1.000000 1.000000 -1.000000
v -1.000000 -1.000000 -1.000000
v -1.000000 -1.000000 1.000000
v 1.000000 1.000000 -1.000000
v 1.000000 -1.000000 1.000000
v -1.000000 -1.000000 1.000000
v -1.000000 1.000000 -1.000000
vt 0.375000 0.000000
vt 0.375000 0.000000
vt 0.625000 0.250000
vt 0.625000 0.250000
vt 0.625000 0.500000
vt 0.875000 0.500000
vt 0.875000 0.500000
vt 0.625000 0.500000
vt 0.125000 0.500000
vt 0.375000 0.500000
vt 0.375000 0.750000
vt 0.125000 0.750000
vt 0.375000 0.250000
vt 0.375000 0.750000
vt 0.375000 1.000000
vt 0.375000 1.000000
vt 0.625000 0.750000
vt 0.625000 1.000000
vn 0.0000 0.0000 1.0000
vn 0.0000 -1.0000 0.0000
vn 1.0000 0.0000 0.0000
vn 0.0000 0.0000 -1.0000
vn -1.0000 0.0000 0.0000
vn 0.0000 0.7071 0.7071
usemtl Material
s off
f 6/1/1 9/2/1 10/3/1 4/4/1
f 1/5/1 4/6/1 10/7/1 7/8/1
f 5/9/2 2/10/2 3/11/2 6/12/2
f 2/10/3 1/5/3 3/11/3
f 5/13/4 4/4/4 1/5/4 2/10/4
f 4/4/5 5/13/5 6/1/5
f 3/11/1 8/14/1 9/15/1 6/16/1
f 7/17/6 10/18/6 9/15/6 8/14/6
f 3/11/1 1/5/1 7/8/1 8/14/1
